<?xml version="1.0" encoding="iso-8859-1"?>
<!-- Generator: Adobe Illustrator 17.1.0, SVG Export Plug-In . SVG Version: 6.00 Build 0)  -->
<!DOCTYPE svg PUBLIC "-//W3C//DTD SVG 1.1//EN" "http://www.w3.org/Graphics/SVG/1.1/DTD/svg11.dtd">
<svg version="1.1" id="Capa_1" xmlns="http://www.w3.org/2000/svg" xmlns:xlink="http://www.w3.org/1999/xlink" x="0px" y="0px"
	 viewBox="0 0 460 460" style="enable-background:new 0 0 460 460;" xml:space="preserve">
<g>
	<path d="M222.929,195.147c1.953,1.952,4.512,2.929,7.071,2.929s5.119-0.977,7.071-2.929l90.731-90.731
		c2.103-2.103,3.16-5.032,2.886-7.993c-0.274-2.961-1.852-5.646-4.305-7.327C297.931,69.597,264.602,59.29,230,59.29
		s-67.931,10.307-96.384,29.806c-2.453,1.681-4.03,4.366-4.305,7.327c-0.274,2.961,0.784,5.891,2.886,7.993L222.929,195.147z
		 M230,79.29c26.469,0,52.092,6.829,74.797,19.847L230,173.934l-74.797-74.797C177.908,86.119,203.531,79.29,230,79.29z"/>
	<path d="M237.071,264.853c-3.905-3.904-10.237-3.904-14.143,0l-90.731,90.731c-2.103,2.103-3.16,5.032-2.886,7.993
		c0.274,2.961,1.852,5.646,4.305,7.327c28.453,19.499,61.783,29.806,96.384,29.806s67.931-10.307,96.384-29.806
		c2.453-1.681,4.03-4.366,4.305-7.327c0.274-2.961-0.784-5.891-2.886-7.993L237.071,264.853z M230,380.71
		c-26.469,0-52.092-6.829-74.797-19.847L230,286.066l74.797,74.797C282.092,373.881,256.469,380.71,230,380.71z"/>
	<path d="M195.147,222.929l-90.731-90.731c-2.103-2.103-5.031-3.166-7.993-2.886c-2.961,0.273-5.646,1.852-7.327,4.305
		C69.596,162.07,59.29,195.398,59.29,230s10.307,67.93,29.806,96.384c1.681,2.453,4.366,4.031,7.327,4.305
		c0.308,0.029,0.616,0.043,0.922,0.043c2.639,0,5.187-1.045,7.071-2.929l90.731-90.731
		C199.052,233.166,199.052,226.834,195.147,222.929z M99.136,304.797C86.119,282.092,79.29,256.469,79.29,230
		s6.83-52.092,19.847-74.797L173.934,230L99.136,304.797z"/>
	<path d="M370.905,133.616c-1.681-2.453-4.366-4.031-7.327-4.305c-2.967-0.28-5.891,0.783-7.993,2.886l-90.731,90.731
		c-3.905,3.905-3.905,10.237,0,14.143l90.731,90.731c1.884,1.884,4.431,2.929,7.071,2.929c0.306,0,0.614-0.014,0.922-0.043
		c2.961-0.273,5.646-1.852,7.327-4.305C390.404,297.93,400.71,264.602,400.71,230S390.404,162.07,370.905,133.616z M360.864,304.797
		L286.066,230l74.797-74.797c13.017,22.705,19.847,48.328,19.847,74.797S373.881,282.092,360.864,304.797z"/>
    
</g>
</svg>
